<svg width="16" height="16" viewBox="0 0 16 16" fill="none" xmlns="http://www.w3.org/2000/svg">
<g id="&#231;&#188;&#150;&#232;&#190;&#145;&#229;&#153;&#168;&#229;&#164;&#154;&#231;&#170;&#151;&#229;&#143;&#163;/&#229;&#155;&#190;&#230;&#160;&#135;">
<g id="Group">
<path id="Union" fill-rule="evenodd" clip-rule="evenodd" d="M6.71667 2.6665H1.97325C1.61979 2.6665 1.33325 2.95304 1.33325 3.3065V5.33317V5.4665V12.6665C1.33325 13.02 1.64646 13.3332 1.99992 13.3332H13.9999C14.3534 13.3332 14.6666 13.02 14.6666 12.6665V5.33317C14.6666 4.97971 14.3534 4.6665 13.9999 4.6665H8.20436L7.27614 2.99569C7.16326 2.79251 6.9491 2.6665 6.71667 2.6665Z" fill="#707F97" fill-opacity="0.45"/>
<path id="Vector" d="M8.21453 10.4092H9.99622C10.0613 10.409 10.1232 10.3813 10.1666 10.3331C10.21 10.2848 10.2307 10.2204 10.2236 10.156C10.1346 9.34768 9.72935 9.035 8.99987 8.66639L8.87299 7.59644C9.06295 7.41923 9.19373 7.18832 9.24772 6.93484C9.26128 6.86917 9.24444 6.80091 9.20188 6.74895C9.15936 6.69692 9.09562 6.66662 9.02823 6.66639L6.95478 6.66016C6.81294 6.6595 6.70635 6.78856 6.73588 6.92711C6.79101 7.18218 6.92297 7.41446 7.11417 7.59297L6.99987 8.66639C6.26897 9.03395 5.85049 9.34462 5.76695 10.1564C5.75319 10.2916 5.85953 10.4092 5.99638 10.4092L7.7796 10.4092L7.78317 11.3951C7.78612 11.5128 7.88304 11.607 8.00136 11.6072C8.11972 11.6074 8.21615 11.5135 8.2185 11.3958L8.21453 10.4092Z" fill="white"/>
</g>
</g>
</svg>
