<svg width="16" height="16" viewBox="0 0 16 16" fill="none" xmlns="http://www.w3.org/2000/svg">
<g id="&#231;&#188;&#150;&#232;&#190;&#145;&#229;&#153;&#168;&#229;&#164;&#154;&#231;&#170;&#151;&#229;&#143;&#163;/&#229;&#155;&#190;&#230;&#160;&#135;">
<g id="Group">
<path id="Vector" d="M1.97337 2.6665H6.7168C6.94922 2.6665 7.16338 2.79251 7.27626 2.99569L8.62735 5.42765C8.6488 5.46628 8.63489 5.51498 8.59626 5.53644C8.58438 5.54304 8.57101 5.5465 8.55741 5.5465H1.41337C1.36919 5.5465 1.33337 5.51069 1.33337 5.4665V3.3065C1.33337 2.95304 1.61991 2.6665 1.97337 2.6665Z" fill="#5C8CFA"/>
<path id="Vector_2" fill-rule="evenodd" clip-rule="evenodd" d="M2.00004 4.6665H14C14.3535 4.6665 14.6667 4.97971 14.6667 5.33317V12.6665C14.6667 13.02 14.3535 13.3332 14 13.3332H2.00004C1.64658 13.3332 1.33337 13.02 1.33337 12.6665V5.33317C1.33337 4.97971 1.64658 4.6665 2.00004 4.6665Z" fill="#87AFFF"/>
</g>
</g>
</svg>
