<svg width="16" height="4" viewBox="0 0 16 4" fill="none" xmlns="http://www.w3.org/2000/svg">
<path fill-rule="evenodd" clip-rule="evenodd" d="M0.176925 0.432292C0.490513 -0.0223303 1.11327 -0.136662 1.56789 0.176925C2.38769 0.742402 3.37767 1.20199 4.48644 1.51878C5.59458 1.8354 6.78918 2.00009 8.00009 2.00009C9.211 2.00009 10.4056 1.8354 11.5137 1.51879C12.6225 1.20199 13.6125 0.742403 14.4323 0.176926C14.8869 -0.136662 15.5097 -0.0223307 15.8233 0.432292C16.1368 0.886914 16.0225 1.50967 15.5679 1.82326C14.5492 2.52594 13.3565 3.0723 12.0632 3.44183C10.7692 3.81154 9.38923 4.00009 8.00009 4.00009C6.61096 4.00009 5.23098 3.81154 3.937 3.44183C2.64364 3.0723 1.451 2.52594 0.432292 1.82326C-0.0223304 1.50967 -0.136662 0.886914 0.176925 0.432292Z" fill="white"/>
</svg>
