<svg width="20" height="20" viewBox="0 0 20 20" fill="none" xmlns="http://www.w3.org/2000/svg">
<g id="4.&#229;&#133;&#172;&#231;&#148;&#168;&#229;&#155;&#190;&#230;&#160;&#135;/&#229;&#155;&#190;&#230;&#160;&#135;/&#229;&#176;&#143;&#229;&#155;&#190;&#230;&#160;&#135;/&#230;&#184;&#133;&#231;&#169;&#186;">
<path id="&#229;&#189;&#162;&#231;&#138;&#182;&#231;&#187;&#147;&#229;&#144;&#136;" fill-rule="evenodd" clip-rule="evenodd" d="M10.0001 18.3332C14.6025 18.3332 18.3334 14.6022 18.3334 9.99984C18.3334 5.39746 14.6025 1.6665 10.0001 1.6665C5.39771 1.6665 1.66675 5.39746 1.66675 9.99984C1.66675 14.6022 5.39771 18.3332 10.0001 18.3332ZM14.0321 6.84709C14.2266 6.60141 14.2104 6.24348 13.9834 6.0165C13.739 5.77206 13.3427 5.77206 13.0982 6.0165L10.0001 9.11465L6.90193 6.0165L6.84734 5.96786C6.60165 5.77331 6.24372 5.78952 6.01674 6.0165C5.77231 6.26094 5.77231 6.65725 6.01674 6.90169L9.1149 9.99984L6.01674 13.098L5.9681 13.1526C5.77355 13.3983 5.78977 13.7562 6.01674 13.9832C6.26118 14.2276 6.65749 14.2276 6.90193 13.9832L10.0001 10.885L13.0982 13.9832L13.1528 14.0318C13.3985 14.2264 13.7564 14.2102 13.9834 13.9832C14.2279 13.7387 14.2279 13.3424 13.9834 13.098L10.8853 9.99984L13.9834 6.90169L14.0321 6.84709Z" fill="#1C242E" fill-opacity="0.25"/>
</g>
</svg>
