<svg width="16" height="16" viewBox="0 0 16 16" fill="none" xmlns="http://www.w3.org/2000/svg">
<g clip-path="url(#clip0_2214_125818)">
<path d="M14.1184 4.01071L10.2756 0.167857C10.1684 0.0607143 10.0238 0 9.87199 0H2.28627C1.9702 0 1.71484 0.255357 1.71484 0.571429V15.4286C1.71484 15.7446 1.9702 16 2.28627 16H13.7148C14.0309 16 14.2863 15.7446 14.2863 15.4286V4.41607C14.2863 4.26429 14.2256 4.11786 14.1184 4.01071ZM12.9684 4.67857H9.6077V1.31786L12.9684 4.67857ZM13.0006 14.7143H3.00056V1.28571H8.39342V5.14286C8.39342 5.34177 8.47243 5.53254 8.61309 5.67319C8.75374 5.81384 8.9445 5.89286 9.14342 5.89286H13.0006V14.7143Z" fill="#1C242E" fill-opacity="0.75"/>
</g>
<defs>
<clipPath id="clip0_2214_125818">
<rect width="16" height="16" fill="white"/>
</clipPath>
</defs>
</svg>
